Coordinates
version=1
nRows=18
nColumns=63
inDegrees=yes

Units are S.I. units (second, meters, Newtons, ...)
If the header above contains a line with 'inDegrees', this indicates whether rotational values are in degrees (yes) or radians (no).

endheader
time	pelvis_tilt	pelvis_list	pelvis_rotation	pelvis_tx	pelvis_ty	pelvis_tz	hip_flexion_r	hip_adduction_r	hip_rotation_r	knee_angle_r	knee_angle_r_beta	ankle_angle_r	subtalar_angle_r	mtp_angle_r	hip_flexion_l	hip_adduction_l	hip_rotation_l	knee_angle_l	knee_angle_l_beta	ankle_angle_l	subtalar_angle_l	mtp_angle_l	L5_S1_Flex_Ext	L5_S1_Lat_Bending	L5_S1_axial_rotation	L4_L5_Flex_Ext	L4_L5_Lat_Bending	L4_L5_axial_rotation	L3_L4_Flex_Ext	L3_L4_Lat_Bending	L3_L4_axial_rotation	L2_L3_Flex_Ext	L2_L3_Lat_Bending	L2_L3_axial_rotation	L1_L2_Flex_Ext	L1_L2_Lat_Bending	L1_L2_axial_rotation	L1_T12_Flex_Ext	L1_T12_Lat_Bending	L1_T12_axial_rotation	Abs_r3	Abs_r2	Abs_r1	Abs_t1	Abs_t2	neck_flexion	neck_bending	neck_rotation	arm_flex_r	arm_add_r	arm_rot_r	elbow_flex_r	pro_sup_r	wrist_flex_r	wrist_dev_r	arm_flex_l	arm_add_l	arm_rot_l	elbow_flex_l	pro_sup_l	wrist_flex_l	wrist_dev_l
2.254237	-0.215249	-4.783582	82.936603	0.222395	0.861995	0.651738	0.353638	-1.618294	-12.607708	9.375582	0.163635	23.610458	17.752116	0.000000	-0.933113	-2.348422	-0.604498	9.672096	0.168810	21.434186	-4.316774	0.000000	0.008637	0.228908	0.739118	0.016040	0.304447	0.785313	0.014190	0.556566	0.785313	0.009872	0.556566	0.646728	0.008021	0.466789	0.600533	0.004935	0.354578	0.554339	0.061696	2.589451	4.110753	0.000000	0.000000	11.732783	-4.501987	-0.163841	9.813322	-3.314240	145.681683	3.413844	-0.040356	-0.096366	-7.613577	4.926342	-11.001118	58.755773	27.130509	76.332467	-3.754707	4.496918
2.271186	-0.232942	-4.802917	82.973594	0.222441	0.861870	0.651733	0.390699	-1.624943	-12.616658	9.382247	0.163751	23.660921	17.747648	0.000000	-0.925687	-2.366604	-0.752173	9.668411	0.168746	21.529620	-4.040574	0.000000	0.010762	0.226914	0.723343	0.019986	0.301795	0.768552	0.017681	0.551718	0.768552	0.012300	0.551718	0.632925	0.009994	0.462722	0.587716	0.006149	0.351489	0.542507	0.076872	2.566892	4.023017	0.000000	0.000000	12.075806	-4.368409	-0.016273	9.842265	-3.297331	145.164111	3.364653	-0.325378	-0.286530	-7.677979	4.878539	-11.036737	58.731102	27.137168	76.256100	-3.870233	4.336233
2.288136	-0.262293	-4.816987	82.981403	0.222514	0.861741	0.651689	0.419846	-1.644508	-12.554754	9.372988	0.163589	23.721739	17.740552	0.000000	-0.930306	-2.368357	-0.943563	9.655909	0.168527	21.616535	-3.750617	0.000000	0.011864	0.224137	0.711621	0.022032	0.298103	0.756097	0.019491	0.544968	0.756097	0.013559	0.544968	0.622668	0.011017	0.457061	0.578192	0.006779	0.347189	0.533716	0.084742	2.535487	3.957822	0.000000	0.000000	12.444485	-4.224293	0.186671	9.770243	-3.414162	142.456563	3.672719	1.005954	-0.627401	-7.533697	4.829917	-11.086603	58.738937	27.168375	75.956884	-4.021314	4.181114
2.305085	-0.301105	-4.828431	82.948167	0.222611	0.861607	0.651613	0.451616	-1.678298	-12.427324	9.366477	0.163476	23.791523	17.733597	0.000000	-0.943685	-2.353127	-1.168439	9.637692	0.168209	21.687436	-3.473932	0.000000	0.012576	0.221106	0.703920	0.023355	0.294071	0.747915	0.020661	0.537596	0.747915	0.014373	0.537596	0.615930	0.011678	0.450879	0.571935	0.007186	0.342493	0.527940	0.089830	2.501192	3.914993	0.000000	0.000000	12.828579	-4.072890	0.441367	9.618372	-3.673171	137.486488	4.341525	4.215306	-1.096321	-7.180776	4.764166	-11.135057	58.680512	27.219381	75.621913	-4.176492	4.039445
2.322034	-0.368573	-4.839547	82.888550	0.222804	0.861494	0.651474	0.479519	-1.739318	-12.252861	9.350012	0.163188	23.858732	17.715634	0.000000	-0.965980	-2.299133	-1.330039	9.601485	0.167578	21.693497	-3.322844	0.000000	0.014119	0.214160	0.699829	0.026219	0.284833	0.743568	0.023195	0.520709	0.743568	0.016136	0.520709	0.612350	0.013110	0.436715	0.568611	0.008067	0.331734	0.524872	0.100847	2.422620	3.892238	0.000000	0.000000	13.205780	-3.922646	0.683432	9.660861	-3.680640	136.437665	4.320219	3.993466	-1.060341	-7.212070	4.644557	-11.197272	58.330573	27.323935	75.427545	-4.238535	4.022897
2.338983	-0.442192	-4.843364	82.777208	0.223046	0.861392	0.651284	0.502378	-1.811973	-12.020003	9.339063	0.162997	23.920477	17.693860	0.000000	-1.009812	-2.225803	-1.478069	9.550340	0.166685	21.671733	-3.248862	0.000000	0.015554	0.207019	0.703417	0.028885	0.275335	0.747381	0.025553	0.503345	0.747381	0.017776	0.503345	0.615490	0.014443	0.422152	0.571526	0.008887	0.320672	0.527563	0.111099	2.341836	3.912194	0.000000	0.000000	13.552275	-3.789678	0.929506	9.706127	-3.689673	135.460064	4.289304	3.791984	-0.939267	-7.208285	4.501639	-11.253187	57.847019	27.456064	75.245790	-4.235527	4.100192
2.355932	-0.520136	-4.836781	82.624145	0.223330	0.861311	0.651046	0.514942	-1.895533	-11.771154	9.334969	0.162926	23.975227	17.688384	0.000000	-1.078270	-2.140115	-1.657610	9.483664	0.165521	21.644883	-3.165037	0.000000	0.016984	0.199798	0.713864	0.031540	0.265731	0.758480	0.027902	0.485789	0.758480	0.019410	0.485789	0.624631	0.015771	0.407428	0.580014	0.009704	0.309487	0.535398	0.121312	2.260155	3.970296	0.000000	0.000000	13.833235	-3.645278	1.204711	9.757988	-3.714767	134.249097	4.318931	3.785602	-0.780272	-7.184634	4.355099	-11.308888	57.334704	27.619003	74.999070	-4.210028	4.301236
2.372881	-0.590185	-4.824501	82.457612	0.223619	0.861244	0.650762	0.515360	-1.974453	-11.527327	9.332572	0.162884	24.015052	17.681225	0.000000	-1.156865	-2.055012	-1.816041	9.419274	0.164397	21.624627	-3.112294	0.000000	0.018850	0.193582	0.727575	0.035006	0.257464	0.773048	0.030968	0.470676	0.773048	0.021543	0.470676	0.636628	0.017504	0.394753	0.591154	0.010771	0.299859	0.545681	0.134642	2.189839	4.046551	0.000000	0.000000	14.052789	-3.557109	1.412824	9.805670	-3.728009	133.410242	4.296651	3.679977	-0.523720	-7.111014	4.203386	-11.356076	56.748760	27.798798	74.764283	-4.097217	4.617203
2.389831	-0.655233	-4.807892	82.265794	0.223940	0.861198	0.650440	0.509117	-2.049599	-11.268879	9.334895	0.162925	24.045988	17.664496	0.000000	-1.248033	-1.970722	-1.995420	9.350488	0.163197	21.619611	-3.049268	0.000000	0.021478	0.187775	0.749056	0.039887	0.249741	0.795872	0.035287	0.456557	0.795872	0.024548	0.456557	0.655424	0.019945	0.382912	0.608608	0.012273	0.290864	0.561792	0.153417	2.124153	4.166025	0.000000	0.000000	14.195978	-3.500429	1.556288	9.845885	-3.740095	132.639777	4.278817	3.607253	-0.213312	-7.012842	4.049188	-11.393042	56.084632	27.989678	74.595668	-3.911736	5.047717
2.406780	-0.745041	-4.786427	82.092905	0.224386	0.861229	0.650102	0.492385	-2.142147	-11.046760	9.330683	0.162851	24.067989	17.651596	0.000000	-1.336563	-1.875586	-2.250294	9.288049	0.162107	21.633138	-2.839893	0.000000	0.025602	0.176912	0.770550	0.047546	0.235293	0.818709	0.042062	0.430144	0.818709	0.029261	0.430144	0.674231	0.023774	0.360759	0.626072	0.014629	0.274037	0.577912	0.182873	2.001263	4.285565	0.000000	0.000000	14.242149	-3.456330	1.594585	10.277004	-3.480773	136.933553	3.153808	-0.696567	0.659803	-7.671131	3.915189	-11.467449	55.466554	28.197928	74.419661	-3.681981	5.564739
2.423729	-0.805089	-4.765589	81.917689	0.224772	0.861259	0.649738	0.468700	-2.204688	-10.813523	9.320600	0.162675	24.085149	17.625280	0.000000	-1.427472	-1.805307	-2.481048	9.232654	0.161140	21.674626	-2.667043	0.000000	0.030183	0.169652	0.803799	0.056052	0.225637	0.854037	0.049587	0.412491	0.854037	0.034496	0.412491	0.703324	0.028028	0.345954	0.653087	0.017246	0.262791	0.602849	0.215592	1.919135	4.470490	0.000000	0.000000	14.244114	-3.485888	1.505890	10.451710	-3.362867	138.396293	2.634374	-2.520003	1.350595	-7.874947	3.808672	-11.504442	54.845224	28.383611	74.324515	-3.378991	6.153556
2.440678	-0.838418	-4.741216	81.760873	0.225091	0.861306	0.649373	0.432617	-2.238899	-10.594907	9.300672	0.162327	24.105288	17.595443	0.000000	-1.516185	-1.767269	-2.772596	9.195137	0.160485	21.767711	-2.382119	0.000000	0.034493	0.165210	0.846381	0.064057	0.219729	0.899279	0.056669	0.401691	0.899279	0.039422	0.401691	0.740583	0.032030	0.336896	0.687684	0.019709	0.255910	0.634785	0.246380	1.868885	4.707315	0.000000	0.000000	14.214514	-3.581581	1.278909	10.429048	-3.396029	137.499825	2.655790	-2.380260	1.798353	-7.732747	3.778979	-11.520488	54.459458	28.528124	74.125878	-3.054344	6.753402
2.457627	-0.853546	-4.718263	81.617826	0.225351	0.861361	0.649007	0.392489	-2.253943	-10.390671	9.273850	0.161859	24.130941	17.570108	0.000000	-1.601697	-1.747302	-3.047593	9.161841	0.159904	21.878178	-2.105964	0.000000	0.039369	0.162691	0.899186	0.073111	0.216379	0.955385	0.064679	0.395566	0.955385	0.044994	0.395566	0.786787	0.036558	0.331759	0.730588	0.022495	0.252008	0.674389	0.281206	1.840390	5.001000	0.000000	0.000000	14.161554	-3.730188	0.925191	10.193213	-3.546478	134.236887	3.190360	-0.260425	2.033056	-7.266370	3.811794	-11.513365	54.260362	28.630612	73.833106	-2.711295	7.358478
2.474576	-0.850287	-4.698696	81.503023	0.225538	0.861420	0.648647	0.351300	-2.249222	-10.211111	9.245267	0.161360	24.158158	17.538332	0.000000	-1.674489	-1.748760	-3.320223	9.143251	0.159580	22.013129	-1.802277	0.000000	0.044629	0.162235	0.956193	0.082880	0.215772	1.015955	0.073320	0.394457	1.015955	0.051006	0.394457	0.836669	0.041442	0.330829	0.776907	0.025501	0.251302	0.717145	0.318778	1.835231	5.318060	0.000000	0.000000	14.102369	-3.932473	0.469363	9.771953	-3.784661	129.167873	4.122234	3.401880	2.086672	-6.520232	3.895710	-11.485394	54.221929	28.685627	73.518925	-2.358273	7.920437
2.491525	-0.836271	-4.687685	81.412834	0.225657	0.861472	0.648302	0.319627	-2.234806	-10.066653	9.226305	0.161029	24.186829	17.505495	0.000000	-1.731807	-1.756874	-3.493356	9.128389	0.159320	22.131514	-1.616133	0.000000	0.050656	0.163152	1.014001	0.094074	0.216992	1.077376	0.083223	0.396688	1.077376	0.057895	0.396688	0.887251	0.047039	0.332700	0.823875	0.028945	0.252723	0.760500	0.361832	1.845609	5.639567	0.000000	0.000000	14.046447	-4.163761	-0.046767	9.199453	-4.094909	122.579886	5.390316	8.354184	1.930766	-5.567697	4.012083	-11.443273	54.302957	28.706491	73.215728	-2.012908	8.440252
2.508475	-0.815943	-4.684442	81.363679	0.225699	0.861518	0.647976	0.294645	-2.216388	-9.989756	9.219094	0.160904	24.212097	17.480995	0.000000	-1.766408	-1.776028	-3.647061	9.127975	0.159313	22.259984	-1.410862	0.000000	0.056932	0.165175	1.065007	0.105728	0.219682	1.131570	0.093533	0.401606	1.131570	0.065067	0.401606	0.931882	0.052867	0.336824	0.865319	0.032531	0.255856	0.798756	0.406658	1.868489	5.923252	0.000000	0.000000	13.985912	-4.393724	-0.541035	8.517416	-4.462280	114.835808	6.914893	14.281054	1.572067	-4.462066	4.161623	-11.397857	54.576539	28.691230	72.851029	-1.729869	8.867653
2.525424	-0.799767	-4.694878	81.338433	0.225690	0.861537	0.647662	0.285002	-2.204222	-9.959440	9.225730	0.161019	24.231104	17.460681	0.000000	-1.777530	-1.790162	-3.728215	9.130275	0.159353	22.368258	-1.286815	0.000000	0.063637	0.167407	1.107772	0.118181	0.222652	1.177007	0.104550	0.407034	1.177007	0.072731	0.407034	0.969300	0.059093	0.341377	0.900064	0.036362	0.259314	0.830829	0.454554	1.893745	6.161093	0.000000	0.000000	13.934844	-4.593942	-0.965076	7.751600	-4.868495	106.089843	8.662595	21.033839	1.012147	-3.254387	4.297083	-11.347663	54.852341	28.659698	72.642235	-1.484449	9.207904
2.542373	-0.789560	-4.719206	81.342289	0.225627	0.861524	0.647344	0.287001	-2.200339	-9.978847	9.241772	0.161299	24.247714	17.445812	0.000000	-1.764922	-1.796544	-3.717641	9.134835	0.159433	22.445165	-1.275734	0.000000	0.070528	0.169888	1.137616	0.130978	0.225951	1.208717	0.115871	0.413066	1.208717	0.080607	0.413066	0.995414	0.065493	0.346435	0.924313	0.040300	0.263156	0.853212	0.503777	1.921806	6.327079	0.000000	0.000000	13.888171	-4.741713	-1.260537	6.938071	-5.306339	96.682117	10.567819	28.292229	0.262695	-2.000948	4.410064	-11.300564	55.165736	28.614366	72.525328	-1.324061	9.418904
